<mxfile host="app.diagrams.net" modified="2023-07-10T11:37:16.091Z" agent="Mozilla/5.0 (Windows NT 10.0; Win64; x64; rv:109.0) Gecko/20100101 Firefox/115.0" etag="QamQkH1XHCyf4ycevVgF" version="21.4.0" type="device">
  <diagram id="R2lEEEUBdFMjLlhIrx00" name="Page-1">
    <mxGraphModel dx="1293" dy="270" grid="1" gridSize="10" guides="1" tooltips="1" connect="1" arrows="1" fold="1" page="1" pageScale="1" pageWidth="850" pageHeight="1100" math="0" shadow="0" extFonts="Permanent Marker^https://fonts.googleapis.com/css?family=Permanent+Marker">
      <root>
        <mxCell id="0" />
        <mxCell id="1" parent="0" />
        <mxCell id="ALj4X3FWaxZCNLGLc96f-1" value="" style="rounded=0;whiteSpace=wrap;html=1;" vertex="1" parent="1">
          <mxGeometry x="-230" y="240" width="120" height="60" as="geometry" />
        </mxCell>
        <mxCell id="ALj4X3FWaxZCNLGLc96f-2" value="UTENTE" style="text;html=1;strokeColor=none;fillColor=none;align=center;verticalAlign=middle;whiteSpace=wrap;rounded=0;" vertex="1" parent="1">
          <mxGeometry x="-200" y="255" width="60" height="30" as="geometry" />
        </mxCell>
        <mxCell id="ALj4X3FWaxZCNLGLc96f-10" value="" style="ellipse;whiteSpace=wrap;html=1;aspect=fixed;" vertex="1" parent="1">
          <mxGeometry x="-200" y="200" width="10" height="10" as="geometry" />
        </mxCell>
        <mxCell id="ALj4X3FWaxZCNLGLc96f-11" value="" style="ellipse;whiteSpace=wrap;html=1;aspect=fixed;fillStyle=solid;fillColor=#ffffff;" vertex="1" parent="1">
          <mxGeometry x="-260" y="190" width="10" height="10" as="geometry" />
        </mxCell>
        <mxCell id="ALj4X3FWaxZCNLGLc96f-16" value="" style="endArrow=none;html=1;rounded=0;exitX=0;exitY=0;exitDx=0;exitDy=0;entryX=0.5;entryY=1;entryDx=0;entryDy=0;" edge="1" parent="1" source="ALj4X3FWaxZCNLGLc96f-1" target="ALj4X3FWaxZCNLGLc96f-11">
          <mxGeometry width="50" height="50" relative="1" as="geometry">
            <mxPoint x="-160" y="320" as="sourcePoint" />
            <mxPoint x="-110" y="270" as="targetPoint" />
          </mxGeometry>
        </mxCell>
        <mxCell id="ALj4X3FWaxZCNLGLc96f-18" value="Username" style="text;html=1;strokeColor=none;fillColor=none;align=center;verticalAlign=middle;whiteSpace=wrap;rounded=0;" vertex="1" parent="1">
          <mxGeometry x="-290" y="160" width="60" height="30" as="geometry" />
        </mxCell>
        <mxCell id="ALj4X3FWaxZCNLGLc96f-20" value="Password" style="text;html=1;strokeColor=none;fillColor=none;align=center;verticalAlign=middle;whiteSpace=wrap;rounded=0;" vertex="1" parent="1">
          <mxGeometry x="-225" y="170" width="60" height="30" as="geometry" />
        </mxCell>
        <mxCell id="ALj4X3FWaxZCNLGLc96f-21" value="" style="endArrow=none;html=1;rounded=0;exitX=0.25;exitY=0;exitDx=0;exitDy=0;entryX=0.5;entryY=1;entryDx=0;entryDy=0;" edge="1" parent="1" source="ALj4X3FWaxZCNLGLc96f-1" target="ALj4X3FWaxZCNLGLc96f-10">
          <mxGeometry width="50" height="50" relative="1" as="geometry">
            <mxPoint x="-160" y="280" as="sourcePoint" />
            <mxPoint x="-110" y="230" as="targetPoint" />
          </mxGeometry>
        </mxCell>
        <mxCell id="ALj4X3FWaxZCNLGLc96f-23" value="" style="rounded=0;whiteSpace=wrap;html=1;" vertex="1" parent="1">
          <mxGeometry x="120" y="240" width="120" height="60" as="geometry" />
        </mxCell>
        <mxCell id="ALj4X3FWaxZCNLGLc96f-25" value="SCHEDA&lt;br&gt;PERSONAGGIO" style="text;html=1;strokeColor=none;fillColor=none;align=center;verticalAlign=middle;whiteSpace=wrap;rounded=0;" vertex="1" parent="1">
          <mxGeometry x="150" y="255" width="60" height="30" as="geometry" />
        </mxCell>
        <mxCell id="ALj4X3FWaxZCNLGLc96f-26" value="" style="ellipse;whiteSpace=wrap;html=1;aspect=fixed;fillStyle=solid;fillColor=#ffffff;" vertex="1" parent="1">
          <mxGeometry x="80" y="180" width="10" height="10" as="geometry" />
        </mxCell>
        <mxCell id="ALj4X3FWaxZCNLGLc96f-27" value="" style="ellipse;whiteSpace=wrap;html=1;aspect=fixed;" vertex="1" parent="1">
          <mxGeometry x="135" y="170" width="10" height="10" as="geometry" />
        </mxCell>
        <mxCell id="ALj4X3FWaxZCNLGLc96f-30" value="" style="endArrow=none;html=1;rounded=0;exitX=0;exitY=0;exitDx=0;exitDy=0;entryX=0.5;entryY=1;entryDx=0;entryDy=0;" edge="1" parent="1" source="ALj4X3FWaxZCNLGLc96f-23" target="ALj4X3FWaxZCNLGLc96f-26">
          <mxGeometry width="50" height="50" relative="1" as="geometry">
            <mxPoint x="130" y="260" as="sourcePoint" />
            <mxPoint x="180" y="210" as="targetPoint" />
          </mxGeometry>
        </mxCell>
        <mxCell id="ALj4X3FWaxZCNLGLc96f-31" value="ID_scheda" style="text;html=1;strokeColor=none;fillColor=none;align=center;verticalAlign=middle;whiteSpace=wrap;rounded=0;" vertex="1" parent="1">
          <mxGeometry x="55" y="150" width="60" height="30" as="geometry" />
        </mxCell>
        <mxCell id="ALj4X3FWaxZCNLGLc96f-32" value="" style="ellipse;whiteSpace=wrap;html=1;aspect=fixed;" vertex="1" parent="1">
          <mxGeometry x="175" y="200" width="10" height="10" as="geometry" />
        </mxCell>
        <mxCell id="ALj4X3FWaxZCNLGLc96f-33" value="" style="ellipse;whiteSpace=wrap;html=1;aspect=fixed;" vertex="1" parent="1">
          <mxGeometry x="220" y="200" width="10" height="10" as="geometry" />
        </mxCell>
        <mxCell id="ALj4X3FWaxZCNLGLc96f-34" value="" style="endArrow=none;html=1;rounded=0;exitX=0.5;exitY=1;exitDx=0;exitDy=0;entryX=0.25;entryY=0;entryDx=0;entryDy=0;" edge="1" parent="1" source="ALj4X3FWaxZCNLGLc96f-27" target="ALj4X3FWaxZCNLGLc96f-23">
          <mxGeometry width="50" height="50" relative="1" as="geometry">
            <mxPoint x="130" y="260" as="sourcePoint" />
            <mxPoint x="180" y="210" as="targetPoint" />
          </mxGeometry>
        </mxCell>
        <mxCell id="ALj4X3FWaxZCNLGLc96f-35" value="" style="endArrow=none;html=1;rounded=0;exitX=0.5;exitY=1;exitDx=0;exitDy=0;entryX=0.5;entryY=0;entryDx=0;entryDy=0;" edge="1" parent="1" source="ALj4X3FWaxZCNLGLc96f-32" target="ALj4X3FWaxZCNLGLc96f-23">
          <mxGeometry width="50" height="50" relative="1" as="geometry">
            <mxPoint x="130" y="260" as="sourcePoint" />
            <mxPoint x="180" y="210" as="targetPoint" />
          </mxGeometry>
        </mxCell>
        <mxCell id="ALj4X3FWaxZCNLGLc96f-36" value="" style="endArrow=none;html=1;rounded=0;exitX=0.5;exitY=1;exitDx=0;exitDy=0;entryX=0.75;entryY=0;entryDx=0;entryDy=0;" edge="1" parent="1" source="ALj4X3FWaxZCNLGLc96f-33" target="ALj4X3FWaxZCNLGLc96f-23">
          <mxGeometry width="50" height="50" relative="1" as="geometry">
            <mxPoint x="130" y="260" as="sourcePoint" />
            <mxPoint x="180" y="210" as="targetPoint" />
          </mxGeometry>
        </mxCell>
        <mxCell id="ALj4X3FWaxZCNLGLc96f-37" value="Nome" style="text;html=1;strokeColor=none;fillColor=none;align=center;verticalAlign=middle;whiteSpace=wrap;rounded=0;" vertex="1" parent="1">
          <mxGeometry x="115" y="140" width="60" height="30" as="geometry" />
        </mxCell>
        <mxCell id="ALj4X3FWaxZCNLGLc96f-38" value="Sesso" style="text;html=1;strokeColor=none;fillColor=none;align=center;verticalAlign=middle;whiteSpace=wrap;rounded=0;" vertex="1" parent="1">
          <mxGeometry x="150" y="170" width="60" height="30" as="geometry" />
        </mxCell>
        <mxCell id="ALj4X3FWaxZCNLGLc96f-39" value="EtÃ " style="text;html=1;strokeColor=none;fillColor=none;align=center;verticalAlign=middle;whiteSpace=wrap;rounded=0;" vertex="1" parent="1">
          <mxGeometry x="195" y="170" width="60" height="30" as="geometry" />
        </mxCell>
        <mxCell id="ALj4X3FWaxZCNLGLc96f-43" value="" style="ellipse;whiteSpace=wrap;html=1;aspect=fixed;" vertex="1" parent="1">
          <mxGeometry x="220" y="340" width="10" height="10" as="geometry" />
        </mxCell>
        <mxCell id="ALj4X3FWaxZCNLGLc96f-44" value="" style="endArrow=none;html=1;rounded=0;exitX=0.5;exitY=0;exitDx=0;exitDy=0;entryX=0.75;entryY=1;entryDx=0;entryDy=0;" edge="1" parent="1" source="ALj4X3FWaxZCNLGLc96f-43" target="ALj4X3FWaxZCNLGLc96f-23">
          <mxGeometry width="50" height="50" relative="1" as="geometry">
            <mxPoint x="190" y="280" as="sourcePoint" />
            <mxPoint x="240" y="230" as="targetPoint" />
          </mxGeometry>
        </mxCell>
        <mxCell id="ALj4X3FWaxZCNLGLc96f-45" value="P.E." style="text;html=1;strokeColor=none;fillColor=none;align=center;verticalAlign=middle;whiteSpace=wrap;rounded=0;" vertex="1" parent="1">
          <mxGeometry x="200" y="345" width="60" height="30" as="geometry" />
        </mxCell>
        <mxCell id="ALj4X3FWaxZCNLGLc96f-46" value="" style="ellipse;whiteSpace=wrap;html=1;" vertex="1" parent="1">
          <mxGeometry x="330" y="107.5" width="60" height="20" as="geometry" />
        </mxCell>
        <mxCell id="ALj4X3FWaxZCNLGLc96f-47" value="Attributi" style="text;html=1;strokeColor=none;fillColor=none;align=center;verticalAlign=middle;whiteSpace=wrap;rounded=0;" vertex="1" parent="1">
          <mxGeometry x="340" y="112.5" width="40" height="10" as="geometry" />
        </mxCell>
        <mxCell id="ALj4X3FWaxZCNLGLc96f-48" value="" style="endArrow=none;html=1;rounded=0;exitX=1;exitY=0;exitDx=0;exitDy=0;entryX=0;entryY=0.5;entryDx=0;entryDy=0;" edge="1" parent="1" source="ALj4X3FWaxZCNLGLc96f-23" target="ALj4X3FWaxZCNLGLc96f-46">
          <mxGeometry width="50" height="50" relative="1" as="geometry">
            <mxPoint x="210" y="300" as="sourcePoint" />
            <mxPoint x="260" y="250" as="targetPoint" />
          </mxGeometry>
        </mxCell>
        <mxCell id="ALj4X3FWaxZCNLGLc96f-49" value="" style="ellipse;whiteSpace=wrap;html=1;aspect=fixed;" vertex="1" parent="1">
          <mxGeometry x="320" y="70" width="10" height="10" as="geometry" />
        </mxCell>
        <mxCell id="ALj4X3FWaxZCNLGLc96f-50" value="" style="ellipse;whiteSpace=wrap;html=1;aspect=fixed;" vertex="1" parent="1">
          <mxGeometry x="355" y="47.5" width="10" height="10" as="geometry" />
        </mxCell>
        <mxCell id="ALj4X3FWaxZCNLGLc96f-51" value="" style="ellipse;whiteSpace=wrap;html=1;aspect=fixed;" vertex="1" parent="1">
          <mxGeometry x="390" y="70" width="10" height="10" as="geometry" />
        </mxCell>
        <mxCell id="ALj4X3FWaxZCNLGLc96f-52" value="" style="ellipse;whiteSpace=wrap;html=1;aspect=fixed;" vertex="1" parent="1">
          <mxGeometry x="390" y="150" width="10" height="10" as="geometry" />
        </mxCell>
        <mxCell id="ALj4X3FWaxZCNLGLc96f-53" value="" style="ellipse;whiteSpace=wrap;html=1;aspect=fixed;" vertex="1" parent="1">
          <mxGeometry x="417.5" y="112.5" width="10" height="10" as="geometry" />
        </mxCell>
        <mxCell id="ALj4X3FWaxZCNLGLc96f-54" value="" style="endArrow=none;html=1;rounded=0;exitX=0;exitY=0;exitDx=0;exitDy=0;entryX=0.5;entryY=1;entryDx=0;entryDy=0;" edge="1" parent="1" source="ALj4X3FWaxZCNLGLc96f-46" target="ALj4X3FWaxZCNLGLc96f-49">
          <mxGeometry width="50" height="50" relative="1" as="geometry">
            <mxPoint x="342.5" y="127.5" as="sourcePoint" />
            <mxPoint x="325" y="60" as="targetPoint" />
          </mxGeometry>
        </mxCell>
        <mxCell id="ALj4X3FWaxZCNLGLc96f-55" value="" style="endArrow=none;html=1;rounded=0;exitX=0.5;exitY=0;exitDx=0;exitDy=0;entryX=0.5;entryY=1;entryDx=0;entryDy=0;" edge="1" parent="1" source="ALj4X3FWaxZCNLGLc96f-46" target="ALj4X3FWaxZCNLGLc96f-50">
          <mxGeometry width="50" height="50" relative="1" as="geometry">
            <mxPoint x="342.5" y="127.5" as="sourcePoint" />
            <mxPoint x="392.5" y="77.5" as="targetPoint" />
          </mxGeometry>
        </mxCell>
        <mxCell id="ALj4X3FWaxZCNLGLc96f-56" value="" style="endArrow=none;html=1;rounded=0;entryX=1;entryY=0;entryDx=0;entryDy=0;exitX=0.5;exitY=1;exitDx=0;exitDy=0;" edge="1" parent="1" source="ALj4X3FWaxZCNLGLc96f-51" target="ALj4X3FWaxZCNLGLc96f-46">
          <mxGeometry width="50" height="50" relative="1" as="geometry">
            <mxPoint x="342.5" y="147.5" as="sourcePoint" />
            <mxPoint x="392.5" y="97.5" as="targetPoint" />
          </mxGeometry>
        </mxCell>
        <mxCell id="ALj4X3FWaxZCNLGLc96f-57" value="" style="endArrow=none;html=1;rounded=0;exitX=1;exitY=0.5;exitDx=0;exitDy=0;entryX=0;entryY=0.5;entryDx=0;entryDy=0;" edge="1" parent="1" source="ALj4X3FWaxZCNLGLc96f-46" target="ALj4X3FWaxZCNLGLc96f-53">
          <mxGeometry width="50" height="50" relative="1" as="geometry">
            <mxPoint x="342.5" y="157.5" as="sourcePoint" />
            <mxPoint x="392.5" y="107.5" as="targetPoint" />
          </mxGeometry>
        </mxCell>
        <mxCell id="ALj4X3FWaxZCNLGLc96f-59" value="" style="endArrow=none;html=1;rounded=0;exitX=1;exitY=1;exitDx=0;exitDy=0;entryX=0;entryY=0.5;entryDx=0;entryDy=0;" edge="1" parent="1" source="ALj4X3FWaxZCNLGLc96f-46" target="ALj4X3FWaxZCNLGLc96f-52">
          <mxGeometry width="50" height="50" relative="1" as="geometry">
            <mxPoint x="342.5" y="157.5" as="sourcePoint" />
            <mxPoint x="392.5" y="107.5" as="targetPoint" />
          </mxGeometry>
        </mxCell>
        <mxCell id="ALj4X3FWaxZCNLGLc96f-60" value="AgilitÃ " style="text;html=1;strokeColor=none;fillColor=none;align=center;verticalAlign=middle;whiteSpace=wrap;rounded=0;" vertex="1" parent="1">
          <mxGeometry x="267.5" y="57.5" width="60" height="30" as="geometry" />
        </mxCell>
        <mxCell id="ALj4X3FWaxZCNLGLc96f-62" value="Forza" style="text;html=1;strokeColor=none;fillColor=none;align=center;verticalAlign=middle;whiteSpace=wrap;rounded=0;" vertex="1" parent="1">
          <mxGeometry x="330" y="17.5" width="60" height="30" as="geometry" />
        </mxCell>
        <mxCell id="ALj4X3FWaxZCNLGLc96f-63" value="Intelligenza" style="text;html=1;strokeColor=none;fillColor=none;align=center;verticalAlign=middle;whiteSpace=wrap;rounded=0;" vertex="1" parent="1">
          <mxGeometry x="400" y="60" width="60" height="30" as="geometry" />
        </mxCell>
        <mxCell id="ALj4X3FWaxZCNLGLc96f-64" value="Spirito" style="text;html=1;strokeColor=none;fillColor=none;align=center;verticalAlign=middle;whiteSpace=wrap;rounded=0;" vertex="1" parent="1">
          <mxGeometry x="415" y="102.5" width="60" height="30" as="geometry" />
        </mxCell>
        <mxCell id="ALj4X3FWaxZCNLGLc96f-66" value="Vigore" style="text;html=1;strokeColor=none;fillColor=none;align=center;verticalAlign=middle;whiteSpace=wrap;rounded=0;" vertex="1" parent="1">
          <mxGeometry x="390" y="140" width="60" height="30" as="geometry" />
        </mxCell>
        <mxCell id="ALj4X3FWaxZCNLGLc96f-73" value="" style="rounded=0;whiteSpace=wrap;html=1;" vertex="1" parent="1">
          <mxGeometry x="120" y="573" width="120" height="60" as="geometry" />
        </mxCell>
        <mxCell id="ALj4X3FWaxZCNLGLc96f-74" value="RAZZA" style="text;html=1;strokeColor=none;fillColor=none;align=center;verticalAlign=middle;whiteSpace=wrap;rounded=0;" vertex="1" parent="1">
          <mxGeometry x="150" y="588" width="60" height="30" as="geometry" />
        </mxCell>
        <mxCell id="ALj4X3FWaxZCNLGLc96f-76" value="" style="ellipse;whiteSpace=wrap;html=1;aspect=fixed;" vertex="1" parent="1">
          <mxGeometry x="320" y="640" width="10" height="10" as="geometry" />
        </mxCell>
        <mxCell id="ALj4X3FWaxZCNLGLc96f-78" value="" style="endArrow=none;html=1;rounded=0;exitX=0;exitY=0.5;exitDx=0;exitDy=0;entryX=1;entryY=0;entryDx=0;entryDy=0;" edge="1" parent="1" source="ALj4X3FWaxZCNLGLc96f-82" target="ALj4X3FWaxZCNLGLc96f-73">
          <mxGeometry width="50" height="50" relative="1" as="geometry">
            <mxPoint x="310" y="685" as="sourcePoint" />
            <mxPoint x="280" y="645" as="targetPoint" />
          </mxGeometry>
        </mxCell>
        <mxCell id="ALj4X3FWaxZCNLGLc96f-79" value="" style="endArrow=none;html=1;rounded=0;exitX=1;exitY=1;exitDx=0;exitDy=0;entryX=0;entryY=0.5;entryDx=0;entryDy=0;" edge="1" parent="1" source="ALj4X3FWaxZCNLGLc96f-73" target="ALj4X3FWaxZCNLGLc96f-76">
          <mxGeometry width="50" height="50" relative="1" as="geometry">
            <mxPoint x="230" y="695" as="sourcePoint" />
            <mxPoint x="280" y="645" as="targetPoint" />
          </mxGeometry>
        </mxCell>
        <mxCell id="ALj4X3FWaxZCNLGLc96f-82" value="" style="ellipse;whiteSpace=wrap;html=1;aspect=fixed;fillStyle=solid;fillColor=#ffffff;" vertex="1" parent="1">
          <mxGeometry x="320" y="550" width="10" height="10" as="geometry" />
        </mxCell>
        <mxCell id="ALj4X3FWaxZCNLGLc96f-83" value="Nome razza" style="text;html=1;strokeColor=none;fillColor=none;align=center;verticalAlign=middle;whiteSpace=wrap;rounded=0;" vertex="1" parent="1">
          <mxGeometry x="320" y="540" width="60" height="30" as="geometry" />
        </mxCell>
        <mxCell id="ALj4X3FWaxZCNLGLc96f-84" value="Descrizione" style="text;html=1;strokeColor=none;fillColor=none;align=center;verticalAlign=middle;whiteSpace=wrap;rounded=0;" vertex="1" parent="1">
          <mxGeometry x="337.5" y="630" width="60" height="30" as="geometry" />
        </mxCell>
        <mxCell id="ALj4X3FWaxZCNLGLc96f-90" value="" style="ellipse;whiteSpace=wrap;html=1;aspect=fixed;" vertex="1" parent="1">
          <mxGeometry x="267.5" y="340" width="10" height="10" as="geometry" />
        </mxCell>
        <mxCell id="ALj4X3FWaxZCNLGLc96f-91" value="" style="endArrow=none;html=1;rounded=0;entryX=0;entryY=0.5;entryDx=0;entryDy=0;exitX=1;exitY=1;exitDx=0;exitDy=0;" edge="1" parent="1" source="ALj4X3FWaxZCNLGLc96f-23" target="ALj4X3FWaxZCNLGLc96f-90">
          <mxGeometry width="50" height="50" relative="1" as="geometry">
            <mxPoint x="230" y="340" as="sourcePoint" />
            <mxPoint x="280" y="290" as="targetPoint" />
          </mxGeometry>
        </mxCell>
        <mxCell id="ALj4X3FWaxZCNLGLc96f-93" value="VisibilitÃ " style="text;html=1;strokeColor=none;fillColor=none;align=center;verticalAlign=middle;whiteSpace=wrap;rounded=0;" vertex="1" parent="1">
          <mxGeometry x="260" y="345" width="60" height="30" as="geometry" />
        </mxCell>
        <mxCell id="ALj4X3FWaxZCNLGLc96f-96" value="CAMPAGNA" style="rounded=0;whiteSpace=wrap;html=1;" vertex="1" parent="1">
          <mxGeometry x="-230" y="580" width="120" height="60" as="geometry" />
        </mxCell>
        <mxCell id="ALj4X3FWaxZCNLGLc96f-98" value="" style="rhombus;whiteSpace=wrap;html=1;" vertex="1" parent="1">
          <mxGeometry x="-40" y="410" width="80" height="80" as="geometry" />
        </mxCell>
        <mxCell id="ALj4X3FWaxZCNLGLc96f-103" value="" style="endArrow=none;html=1;rounded=0;exitX=1;exitY=1;exitDx=0;exitDy=0;" edge="1" parent="1" source="ALj4X3FWaxZCNLGLc96f-1" target="ALj4X3FWaxZCNLGLc96f-98">
          <mxGeometry width="50" height="50" relative="1" as="geometry">
            <mxPoint x="-120" y="490" as="sourcePoint" />
            <mxPoint x="-70" y="440" as="targetPoint" />
          </mxGeometry>
        </mxCell>
        <mxCell id="ALj4X3FWaxZCNLGLc96f-104" value="" style="endArrow=none;html=1;rounded=0;exitX=0;exitY=1;exitDx=0;exitDy=0;entryX=1;entryY=0;entryDx=0;entryDy=0;" edge="1" parent="1" source="ALj4X3FWaxZCNLGLc96f-23" target="ALj4X3FWaxZCNLGLc96f-98">
          <mxGeometry width="50" height="50" relative="1" as="geometry">
            <mxPoint x="-120" y="490" as="sourcePoint" />
            <mxPoint x="-70" y="440" as="targetPoint" />
          </mxGeometry>
        </mxCell>
        <mxCell id="ALj4X3FWaxZCNLGLc96f-105" value="" style="endArrow=none;html=1;rounded=0;exitX=1;exitY=0;exitDx=0;exitDy=0;entryX=0;entryY=1;entryDx=0;entryDy=0;" edge="1" parent="1" source="ALj4X3FWaxZCNLGLc96f-96" target="ALj4X3FWaxZCNLGLc96f-98">
          <mxGeometry width="50" height="50" relative="1" as="geometry">
            <mxPoint x="-120" y="490" as="sourcePoint" />
            <mxPoint x="-70" y="440" as="targetPoint" />
          </mxGeometry>
        </mxCell>
        <mxCell id="ALj4X3FWaxZCNLGLc96f-108" value="PARTECIPA" style="text;html=1;strokeColor=none;fillColor=none;align=center;verticalAlign=middle;whiteSpace=wrap;rounded=0;" vertex="1" parent="1">
          <mxGeometry x="-30" y="435" width="60" height="30" as="geometry" />
        </mxCell>
        <mxCell id="ALj4X3FWaxZCNLGLc96f-109" value="1,n" style="text;html=1;strokeColor=none;fillColor=none;align=center;verticalAlign=middle;whiteSpace=wrap;rounded=0;" vertex="1" parent="1">
          <mxGeometry x="-130" y="330" width="60" height="30" as="geometry" />
        </mxCell>
        <mxCell id="ALj4X3FWaxZCNLGLc96f-111" value="1,n" style="text;html=1;strokeColor=none;fillColor=none;align=center;verticalAlign=middle;whiteSpace=wrap;rounded=0;" vertex="1" parent="1">
          <mxGeometry x="75" y="330" width="60" height="30" as="geometry" />
        </mxCell>
        <mxCell id="ALj4X3FWaxZCNLGLc96f-112" value="1,n" style="text;html=1;strokeColor=none;fillColor=none;align=center;verticalAlign=middle;whiteSpace=wrap;rounded=0;" vertex="1" parent="1">
          <mxGeometry x="-120" y="510" width="60" height="30" as="geometry" />
        </mxCell>
        <mxCell id="ALj4X3FWaxZCNLGLc96f-115" value="" style="ellipse;whiteSpace=wrap;html=1;aspect=fixed;" vertex="1" parent="1">
          <mxGeometry x="-310" y="650" width="10" height="10" as="geometry" />
        </mxCell>
        <mxCell id="ALj4X3FWaxZCNLGLc96f-116" value="" style="endArrow=none;html=1;rounded=0;exitX=0;exitY=0;exitDx=0;exitDy=0;entryX=1;entryY=0.5;entryDx=0;entryDy=0;" edge="1" parent="1" source="ALj4X3FWaxZCNLGLc96f-96" target="ALj4X3FWaxZCNLGLc96f-165">
          <mxGeometry width="50" height="50" relative="1" as="geometry">
            <mxPoint x="-170" y="620" as="sourcePoint" />
            <mxPoint x="-300" y="555" as="targetPoint" />
          </mxGeometry>
        </mxCell>
        <mxCell id="ALj4X3FWaxZCNLGLc96f-119" value="" style="endArrow=none;html=1;rounded=0;exitX=1;exitY=0.5;exitDx=0;exitDy=0;entryX=0;entryY=1;entryDx=0;entryDy=0;" edge="1" parent="1" source="ALj4X3FWaxZCNLGLc96f-115" target="ALj4X3FWaxZCNLGLc96f-96">
          <mxGeometry width="50" height="50" relative="1" as="geometry">
            <mxPoint x="-170" y="620" as="sourcePoint" />
            <mxPoint x="-120" y="570" as="targetPoint" />
          </mxGeometry>
        </mxCell>
        <mxCell id="ALj4X3FWaxZCNLGLc96f-122" value="Nome_campagna" style="text;html=1;strokeColor=none;fillColor=none;align=center;verticalAlign=middle;whiteSpace=wrap;rounded=0;" vertex="1" parent="1">
          <mxGeometry x="-400" y="535" width="60" height="30" as="geometry" />
        </mxCell>
        <mxCell id="ALj4X3FWaxZCNLGLc96f-123" value="Descrizione" style="text;html=1;strokeColor=none;fillColor=none;align=center;verticalAlign=middle;whiteSpace=wrap;rounded=0;" vertex="1" parent="1">
          <mxGeometry x="-380" y="640" width="60" height="30" as="geometry" />
        </mxCell>
        <mxCell id="ALj4X3FWaxZCNLGLc96f-129" value="" style="rounded=0;whiteSpace=wrap;html=1;" vertex="1" parent="1">
          <mxGeometry x="530" y="240" width="120" height="60" as="geometry" />
        </mxCell>
        <mxCell id="ALj4X3FWaxZCNLGLc96f-134" value="" style="ellipse;whiteSpace=wrap;html=1;aspect=fixed;fillStyle=solid;fillColor=#ffffff;" vertex="1" parent="1">
          <mxGeometry x="530" y="180" width="10" height="10" as="geometry" />
        </mxCell>
        <mxCell id="ALj4X3FWaxZCNLGLc96f-135" value="" style="endArrow=none;html=1;rounded=0;exitX=0.25;exitY=0;exitDx=0;exitDy=0;entryX=0.5;entryY=1;entryDx=0;entryDy=0;" edge="1" parent="1" source="ALj4X3FWaxZCNLGLc96f-129" target="ALj4X3FWaxZCNLGLc96f-134">
          <mxGeometry width="50" height="50" relative="1" as="geometry">
            <mxPoint x="500" y="200" as="sourcePoint" />
            <mxPoint x="550" y="150" as="targetPoint" />
          </mxGeometry>
        </mxCell>
        <mxCell id="ALj4X3FWaxZCNLGLc96f-136" value="" style="endArrow=none;html=1;rounded=0;exitX=0.5;exitY=0;exitDx=0;exitDy=0;entryX=0.5;entryY=1;entryDx=0;entryDy=0;" edge="1" parent="1" source="ALj4X3FWaxZCNLGLc96f-129" target="ALj4X3FWaxZCNLGLc96f-137">
          <mxGeometry width="50" height="50" relative="1" as="geometry">
            <mxPoint x="500" y="250" as="sourcePoint" />
            <mxPoint x="590" y="190" as="targetPoint" />
          </mxGeometry>
        </mxCell>
        <mxCell id="ALj4X3FWaxZCNLGLc96f-137" value="" style="ellipse;whiteSpace=wrap;html=1;aspect=fixed;" vertex="1" parent="1">
          <mxGeometry x="585" y="150" width="10" height="10" as="geometry" />
        </mxCell>
        <mxCell id="ALj4X3FWaxZCNLGLc96f-138" value="" style="ellipse;whiteSpace=wrap;html=1;aspect=fixed;" vertex="1" parent="1">
          <mxGeometry x="640" y="180" width="10" height="10" as="geometry" />
        </mxCell>
        <mxCell id="ALj4X3FWaxZCNLGLc96f-139" value="" style="endArrow=none;html=1;rounded=0;exitX=0.75;exitY=0;exitDx=0;exitDy=0;entryX=0.5;entryY=1;entryDx=0;entryDy=0;" edge="1" parent="1" source="ALj4X3FWaxZCNLGLc96f-129" target="ALj4X3FWaxZCNLGLc96f-138">
          <mxGeometry width="50" height="50" relative="1" as="geometry">
            <mxPoint x="580" y="230" as="sourcePoint" />
            <mxPoint x="630" y="180" as="targetPoint" />
          </mxGeometry>
        </mxCell>
        <mxCell id="ALj4X3FWaxZCNLGLc96f-140" value="ID_oggetto" style="text;html=1;strokeColor=none;fillColor=none;align=center;verticalAlign=middle;whiteSpace=wrap;rounded=0;" vertex="1" parent="1">
          <mxGeometry x="505" y="150" width="60" height="30" as="geometry" />
        </mxCell>
        <mxCell id="ALj4X3FWaxZCNLGLc96f-141" value="Peso" style="text;html=1;strokeColor=none;fillColor=none;align=center;verticalAlign=middle;whiteSpace=wrap;rounded=0;" vertex="1" parent="1">
          <mxGeometry x="560" y="122.5" width="60" height="30" as="geometry" />
        </mxCell>
        <mxCell id="ALj4X3FWaxZCNLGLc96f-142" value="Note" style="text;html=1;strokeColor=none;fillColor=none;align=center;verticalAlign=middle;whiteSpace=wrap;rounded=0;" vertex="1" parent="1">
          <mxGeometry x="615" y="152.5" width="60" height="30" as="geometry" />
        </mxCell>
        <mxCell id="ALj4X3FWaxZCNLGLc96f-143" value="OGGETTO" style="text;html=1;strokeColor=none;fillColor=none;align=center;verticalAlign=middle;whiteSpace=wrap;rounded=0;" vertex="1" parent="1">
          <mxGeometry x="560" y="255" width="60" height="30" as="geometry" />
        </mxCell>
        <mxCell id="ALj4X3FWaxZCNLGLc96f-144" value="" style="endArrow=classic;html=1;rounded=0;exitX=0.5;exitY=0;exitDx=0;exitDy=0;entryX=0.5;entryY=1;entryDx=0;entryDy=0;" edge="1" parent="1" source="ALj4X3FWaxZCNLGLc96f-96" target="ALj4X3FWaxZCNLGLc96f-1">
          <mxGeometry width="50" height="50" relative="1" as="geometry">
            <mxPoint x="90" y="390" as="sourcePoint" />
            <mxPoint x="140" y="340" as="targetPoint" />
          </mxGeometry>
        </mxCell>
        <mxCell id="ALj4X3FWaxZCNLGLc96f-145" value="" style="ellipse;whiteSpace=wrap;html=1;aspect=fixed;" vertex="1" parent="1">
          <mxGeometry x="-310" y="605" width="10" height="10" as="geometry" />
        </mxCell>
        <mxCell id="ALj4X3FWaxZCNLGLc96f-146" value="" style="endArrow=none;html=1;rounded=0;exitX=1;exitY=0.5;exitDx=0;exitDy=0;entryX=0;entryY=0.5;entryDx=0;entryDy=0;" edge="1" parent="1" source="ALj4X3FWaxZCNLGLc96f-145" target="ALj4X3FWaxZCNLGLc96f-96">
          <mxGeometry width="50" height="50" relative="1" as="geometry">
            <mxPoint x="-100" y="580" as="sourcePoint" />
            <mxPoint x="-50" y="530" as="targetPoint" />
          </mxGeometry>
        </mxCell>
        <mxCell id="ALj4X3FWaxZCNLGLc96f-147" value="Username_creatore" style="text;html=1;strokeColor=none;fillColor=none;align=center;verticalAlign=middle;whiteSpace=wrap;rounded=0;" vertex="1" parent="1">
          <mxGeometry x="-400" y="595" width="60" height="30" as="geometry" />
        </mxCell>
        <mxCell id="ALj4X3FWaxZCNLGLc96f-148" value="" style="ellipse;whiteSpace=wrap;html=1;aspect=fixed;fillStyle=solid;fillColor=#ffffff;" vertex="1" parent="1">
          <mxGeometry x="-5" y="540" width="10" height="10" as="geometry" />
        </mxCell>
        <mxCell id="ALj4X3FWaxZCNLGLc96f-149" value="" style="endArrow=none;html=1;rounded=0;exitX=0.5;exitY=1;exitDx=0;exitDy=0;entryX=0.5;entryY=0;entryDx=0;entryDy=0;" edge="1" parent="1" source="ALj4X3FWaxZCNLGLc96f-98" target="ALj4X3FWaxZCNLGLc96f-148">
          <mxGeometry width="50" height="50" relative="1" as="geometry">
            <mxPoint x="-90" y="550" as="sourcePoint" />
            <mxPoint x="-40" y="500" as="targetPoint" />
          </mxGeometry>
        </mxCell>
        <mxCell id="ALj4X3FWaxZCNLGLc96f-150" value="User+&lt;br&gt;ID_Campagna+&lt;br&gt;ID_scheda" style="text;html=1;strokeColor=none;fillColor=none;align=center;verticalAlign=middle;whiteSpace=wrap;rounded=0;" vertex="1" parent="1">
          <mxGeometry x="-30" y="560" width="60" height="30" as="geometry" />
        </mxCell>
        <mxCell id="ALj4X3FWaxZCNLGLc96f-151" value="" style="endArrow=classic;html=1;rounded=0;exitX=0.5;exitY=1;exitDx=0;exitDy=0;entryX=0.5;entryY=0;entryDx=0;entryDy=0;" edge="1" parent="1" source="ALj4X3FWaxZCNLGLc96f-23" target="ALj4X3FWaxZCNLGLc96f-73">
          <mxGeometry width="50" height="50" relative="1" as="geometry">
            <mxPoint x="110" y="440" as="sourcePoint" />
            <mxPoint x="160" y="390" as="targetPoint" />
          </mxGeometry>
        </mxCell>
        <mxCell id="ALj4X3FWaxZCNLGLc96f-152" value="Nome_razza" style="text;html=1;strokeColor=none;fillColor=none;align=center;verticalAlign=middle;whiteSpace=wrap;rounded=0;" vertex="1" parent="1">
          <mxGeometry x="110" y="360" width="60" height="30" as="geometry" />
        </mxCell>
        <mxCell id="ALj4X3FWaxZCNLGLc96f-153" value="" style="ellipse;whiteSpace=wrap;html=1;aspect=fixed;" vertex="1" parent="1">
          <mxGeometry x="135" y="355" width="10" height="10" as="geometry" />
        </mxCell>
        <mxCell id="ALj4X3FWaxZCNLGLc96f-154" value="" style="endArrow=none;html=1;rounded=0;exitX=0.5;exitY=0;exitDx=0;exitDy=0;entryX=0.25;entryY=1;entryDx=0;entryDy=0;" edge="1" parent="1" source="ALj4X3FWaxZCNLGLc96f-153" target="ALj4X3FWaxZCNLGLc96f-23">
          <mxGeometry width="50" height="50" relative="1" as="geometry">
            <mxPoint x="110" y="400" as="sourcePoint" />
            <mxPoint x="160" y="350" as="targetPoint" />
          </mxGeometry>
        </mxCell>
        <mxCell id="ALj4X3FWaxZCNLGLc96f-155" value="" style="endArrow=classic;html=1;rounded=0;exitX=0;exitY=0.5;exitDx=0;exitDy=0;entryX=1;entryY=0.5;entryDx=0;entryDy=0;" edge="1" parent="1" source="ALj4X3FWaxZCNLGLc96f-23" target="ALj4X3FWaxZCNLGLc96f-1">
          <mxGeometry width="50" height="50" relative="1" as="geometry">
            <mxPoint x="40" y="340" as="sourcePoint" />
            <mxPoint x="90" y="290" as="targetPoint" />
          </mxGeometry>
        </mxCell>
        <mxCell id="ALj4X3FWaxZCNLGLc96f-156" value="" style="endArrow=none;html=1;rounded=0;exitX=0;exitY=0.25;exitDx=0;exitDy=0;entryX=1;entryY=0.5;entryDx=0;entryDy=0;" edge="1" parent="1" source="ALj4X3FWaxZCNLGLc96f-23" target="ALj4X3FWaxZCNLGLc96f-157">
          <mxGeometry width="50" height="50" relative="1" as="geometry">
            <mxPoint x="40" y="270" as="sourcePoint" />
            <mxPoint x="20" y="200" as="targetPoint" />
          </mxGeometry>
        </mxCell>
        <mxCell id="ALj4X3FWaxZCNLGLc96f-157" value="" style="ellipse;whiteSpace=wrap;html=1;aspect=fixed;" vertex="1" parent="1">
          <mxGeometry x="30" y="200" width="10" height="10" as="geometry" />
        </mxCell>
        <mxCell id="ALj4X3FWaxZCNLGLc96f-159" value="User" style="text;html=1;strokeColor=none;fillColor=none;align=center;verticalAlign=middle;whiteSpace=wrap;rounded=0;" vertex="1" parent="1">
          <mxGeometry x="-20" y="182.5" width="60" height="30" as="geometry" />
        </mxCell>
        <mxCell id="ALj4X3FWaxZCNLGLc96f-160" value="" style="endArrow=classic;html=1;rounded=0;exitX=0;exitY=0.5;exitDx=0;exitDy=0;entryX=1;entryY=0.5;entryDx=0;entryDy=0;" edge="1" parent="1" source="ALj4X3FWaxZCNLGLc96f-129" target="ALj4X3FWaxZCNLGLc96f-23">
          <mxGeometry width="50" height="50" relative="1" as="geometry">
            <mxPoint x="420" y="260" as="sourcePoint" />
            <mxPoint x="470" y="210" as="targetPoint" />
          </mxGeometry>
        </mxCell>
        <mxCell id="ALj4X3FWaxZCNLGLc96f-161" value="ID_scheda" style="text;html=1;strokeColor=none;fillColor=none;align=center;verticalAlign=middle;whiteSpace=wrap;rounded=0;" vertex="1" parent="1">
          <mxGeometry x="505" y="355" width="60" height="30" as="geometry" />
        </mxCell>
        <mxCell id="ALj4X3FWaxZCNLGLc96f-162" value="" style="ellipse;whiteSpace=wrap;html=1;aspect=fixed;" vertex="1" parent="1">
          <mxGeometry x="530" y="350" width="10" height="10" as="geometry" />
        </mxCell>
        <mxCell id="ALj4X3FWaxZCNLGLc96f-163" value="" style="endArrow=none;html=1;rounded=0;exitX=0.25;exitY=1;exitDx=0;exitDy=0;entryX=0.5;entryY=0;entryDx=0;entryDy=0;" edge="1" parent="1" source="ALj4X3FWaxZCNLGLc96f-129" target="ALj4X3FWaxZCNLGLc96f-162">
          <mxGeometry width="50" height="50" relative="1" as="geometry">
            <mxPoint x="420" y="290" as="sourcePoint" />
            <mxPoint x="470" y="240" as="targetPoint" />
          </mxGeometry>
        </mxCell>
        <mxCell id="ALj4X3FWaxZCNLGLc96f-165" value="" style="ellipse;whiteSpace=wrap;html=1;aspect=fixed;" vertex="1" parent="1">
          <mxGeometry x="-310" y="550" width="10" height="10" as="geometry" />
        </mxCell>
        <mxCell id="ALj4X3FWaxZCNLGLc96f-166" value="" style="ellipse;whiteSpace=wrap;html=1;aspect=fixed;fillStyle=solid;fillColor=#ffffff;" vertex="1" parent="1">
          <mxGeometry x="-175" y="690" width="10" height="10" as="geometry" />
        </mxCell>
        <mxCell id="ALj4X3FWaxZCNLGLc96f-168" value="" style="endArrow=none;html=1;rounded=0;exitX=0.5;exitY=1;exitDx=0;exitDy=0;entryX=0.5;entryY=0;entryDx=0;entryDy=0;" edge="1" parent="1" source="ALj4X3FWaxZCNLGLc96f-96" target="ALj4X3FWaxZCNLGLc96f-166">
          <mxGeometry width="50" height="50" relative="1" as="geometry">
            <mxPoint x="-280" y="600" as="sourcePoint" />
            <mxPoint x="-230" y="550" as="targetPoint" />
          </mxGeometry>
        </mxCell>
        <mxCell id="ALj4X3FWaxZCNLGLc96f-169" value="ID_campagna" style="text;html=1;strokeColor=none;fillColor=none;align=center;verticalAlign=middle;whiteSpace=wrap;rounded=0;" vertex="1" parent="1">
          <mxGeometry x="-200" y="700" width="60" height="30" as="geometry" />
        </mxCell>
        <mxCell id="ALj4X3FWaxZCNLGLc96f-173" value="" style="ellipse;whiteSpace=wrap;html=1;aspect=fixed;" vertex="1" parent="1">
          <mxGeometry x="630" y="350" width="10" height="10" as="geometry" />
        </mxCell>
        <mxCell id="ALj4X3FWaxZCNLGLc96f-174" value="" style="endArrow=none;html=1;rounded=0;exitX=0.5;exitY=0;exitDx=0;exitDy=0;entryX=0.75;entryY=1;entryDx=0;entryDy=0;" edge="1" parent="1" source="ALj4X3FWaxZCNLGLc96f-173" target="ALj4X3FWaxZCNLGLc96f-129">
          <mxGeometry width="50" height="50" relative="1" as="geometry">
            <mxPoint x="730" y="290" as="sourcePoint" />
            <mxPoint x="780" y="240" as="targetPoint" />
          </mxGeometry>
        </mxCell>
        <mxCell id="ALj4X3FWaxZCNLGLc96f-175" value="Nome_oggetto" style="text;html=1;strokeColor=none;fillColor=none;align=center;verticalAlign=middle;whiteSpace=wrap;rounded=0;" vertex="1" parent="1">
          <mxGeometry x="605" y="360" width="60" height="30" as="geometry" />
        </mxCell>
      </root>
    </mxGraphModel>
  </diagram>
</mxfile>
